<?xml version="1.0" standalone="no"?><!DOCTYPE svg PUBLIC "-//W3C//DTD SVG 1.1//EN" "http://www.w3.org/Graphics/SVG/1.1/DTD/svg11.dtd"><svg t="1601717511586" class="icon" viewBox="0 0 1024 1024" version="1.1" xmlns="http://www.w3.org/2000/svg" p-id="7458" xmlns:xlink="http://www.w3.org/1999/xlink" width="24" height="24"><defs><style type="text/css"></style></defs><path d="M821.248 935.936H172.032c-40.96 0-73.728-32.768-73.728-73.728v-419.84h796.672V860.16c0 40.96-32.768 75.776-73.728 75.776zM118.784 462.848V860.16c0 28.672 24.576 53.248 53.248 53.248h649.216c28.672 0 53.248-24.576 53.248-53.248V462.848H118.784z" fill="" p-id="7459"></path><path d="M927.744 438.272l-59.392-270.336c-10.24-51.2-59.392-86.016-112.64-86.016H235.52c-55.296 0-102.4 36.864-112.64 88.064L65.536 438.272c-6.144 32.768 20.48 61.44 55.296 61.44h10.24c20.48 47.104 65.536 79.872 118.784 79.872 53.248 0 100.352-32.768 118.784-79.872h6.144c18.432 51.2 65.536 88.064 122.88 88.064s104.448-36.864 122.88-88.064h2.048a129.024 129.024 0 0 0 120.832 83.968c55.296 0 102.4-34.816 120.832-83.968h10.24c34.816 2.048 61.44-28.672 53.248-61.44z" fill="" p-id="7460"></path></svg>