<?xml version="1.0" standalone="no"?>
<!DOCTYPE svg PUBLIC "-//W3C//DTD SVG 1.1//EN" "http://www.w3.org/Graphics/SVG/1.1/DTD/svg11.dtd">
<svg t="1598524771416" class="icon" viewBox="0 0 1426 1024" version="1.1" xmlns="http://www.w3.org/2000/svg" p-id="4943" xmlns:xlink="http://www.w3.org/1999/xlink" width="56" height="56">
<defs><style type="text/css"></style></defs><path d="M713.140011 0.00448a292.570149 292.570149 0 0 0-159.816443 537.597648A510.534909 510.534909 0 0 0 493.7124 561.556309a355.838443 355.838443 0 0 1-36.571269-34.742705 194.833433 194.833433 0 0 1-36.571268 3.47427 191.99916 191.99916 0 0 1-23.222756-382.444041A338.284234 338.284234 0 0 1 429.71268 91.432651h-9.142817a246.856063 246.856063 0 1 0 33.00557 491.243566A511.99776 511.99776 0 0 0 201.142251 1024h73.142538a438.855223 438.855223 0 0 1 438.855222-438.855223h3.199986A292.570149 292.570149 0 0 0 713.140011 0.00448z m0 511.99776a219.427611 219.427611 0 1 1 219.427612-219.427611 219.427611 219.427611 0 0 1-219.427612 219.427611z" p-id="4944"></path><path d="M1252.566223 338.288714a246.856063 246.856063 0 0 0-246.856063-246.856063h-9.142817a338.284234 338.284234 0 0 1 32.457001 56.136898A191.99916 191.99916 0 0 1 1005.71016 530.287874a194.833433 194.833433 0 0 1-36.0227-3.47427 339.472801 339.472801 0 0 1-47.99979 43.611238A246.856063 246.856063 0 0 0 1252.566223 338.288714z" p-id="4945"></path><path d="M975.72172 584.413352l-53.576909 53.576908A438.855223 438.855223 0 0 1 1151.995234 1024h73.142537a511.99776 511.99776 0 0 0-249.416051-439.586648zM153.782459 585.144777A510.534909 510.534909 0 0 0 0.000274 950.857463h54.856903a455.678006 455.678006 0 0 1 138.605108-327.678567L155.428166 585.144777zM1272.497564 585.144777H1270.851857l-38.034119 38.034119A455.678006 455.678006 0 0 1 1371.422846 950.857463h54.856903a510.534909 510.534909 0 0 0-153.782185-365.712686z" p-id="4946"></path></svg>