<?xml version="1.0" standalone="no"?><!DOCTYPE svg PUBLIC "-//W3C//DTD SVG 1.1//EN" "http://www.w3.org/Graphics/SVG/1.1/DTD/svg11.dtd"><svg t="1602325959540" class="icon" viewBox="0 0 1024 1024" version="1.1" xmlns="http://www.w3.org/2000/svg" p-id="2466" xmlns:xlink="http://www.w3.org/1999/xlink" width="24" height="24"><defs><style type="text/css"></style></defs><path d="M188 768q-8 0-12.992-4.992t-4.992-12.992v-12q0-34.016 18.016-68T234.048 608q28-26.016 63.008-44t68.992-18.016h10.016q6.016 0 11.008 4.992t4.992 12.992q0 6.016-4.992 11.008t-11.008 4.992h-10.016q-26.016 0-55.008 15.008t-52.992 36.992q-24 24-39.008 52t-15.008 54.016v12q0 8-4.992 12.992t-11.008 4.992z m648 0q-6.016 0-11.008-4.992t-4.992-12.992v-12q0-28-12.992-56t-35.008-50.016q-20-24-46.016-38.016t-52-14.016h-26.016q-6.016 0-11.008-4.992t-4.992-11.008q0-8 4.992-12.992t11.008-4.992h26.016q32 0 64 16.992t58.016 44.992q26.016 26.016 42.016 60.992t16 68.992v12q0 8-4.992 12.992t-12.992 4.992zM512 640q-36 0-67.008-12.992t-52.992-36.992q-24-22.016-36.992-52.992t-12.992-64.992V258.016q0-36 12.992-67.008T392 136q22.016-24 52.992-36.992T512 86.016t67.008 12.992 55.008 35.008q22.016 24 35.008 55.008t12.992 67.008v216q0 34.016-12.992 64.992t-36.992 52.992q-22.016 24-52.992 36.992T512.032 640z m0-520q-28 0-52.992 11.008T416 160q-20 20-30.016 44.992t-10.016 52.992v214.016q0 28 11.008 52t28.992 42.016 43.008 28.992 52.992 11.008 52.992-11.008 43.008-28.992 28.992-42.016 11.008-52V256q0-28-10.016-52.992t-30.016-44.992q-18.016-18.016-43.008-28t-52.992-10.016z m256 170.016q-8 0-12.992-4.992t-4.992-11.008v-24q0-46.016-20.992-86.016T674.016 96Q640 65.984 597.024 49.984t-84.992-16-84.992 16T350.048 96q-34.016 28-55.008 68t-20.992 86.016v24q0 6.016-4.992 11.008t-12.992 4.992-12.992-4.992-4.992-11.008v-24q0-50.016 23.008-95.008t59.008-80.992q38.016-34.016 88-54.016T512.096 0t104 20 88 54.016q36 36 59.008 80.992t23.008 95.008v24q0 6.016-4.992 11.008t-12.992 4.992z m-409.984 188H274.016q-12 0-24-2.016t-22.016-8q-10.016-8-16.992-20t-7.008-34.016v-76q0-22.016 7.008-35.008t16.992-19.008q10.016-8 22.016-8.992t24-0.992h84q8 0 12.992 4.992t4.992 11.008v170.016q0 8-4.992 12.992t-12.992 4.992zM274.016 308q-24 0-30.016 6.016t-6.016 24v76q0 16 6.016 23.008t30.016 7.008h68v-136H274.016z m460 170.016h-68q-8 0-12.992-4.992t-4.992-12.992V290.016q0-6.016 4.992-11.008t12.992-4.992h68q20 0 36 4t26.016 12q12 8 18.016 20t6.016 28v76q0 14.016-6.016 26.016t-18.016 20q-10.016 10.016-26.016 14.016t-36 4z m-52-34.016h52q8 0 16.992-0.992t16.992-4.992 12.992-10.016 4.992-14.016v-76q0-10.016-4.992-16T768 311.968q-8-2.016-16.992-3.008t-16.992-0.992h-52v136zM1006.016 1024H18.016q-8 0-12.992-4.992t-4.992-12.992v-136q0-6.016 4.992-11.008t12.992-4.992h988q8 0 12.992 4.992t4.992 11.008v136q0 8-4.992 12.992t-12.992 4.992zM34.016 990.016h956V888H34.016v102.016z m425.984-102.016H120q-8 0-12.992-4.992t-4.992-12.992v-68q0-6.016 4.992-11.008t12.992-4.992h340q8 0 12.992 4.992t4.992 11.008v68q0 8-4.992 12.992t-12.992 4.992zM136 854.016h308v-34.016H136v34.016z m802.016 33.984H598.016q-8 0-12.992-4.992t-4.992-12.992v-68q0-6.016 4.992-11.008t12.992-4.992h340q8 0 12.992 4.992t4.992 11.008v68q0 8-4.992 12.992t-12.992 4.992z m-324-33.984h308v-34.016h-308v34.016z m-244-520q-6.016 0-11.008-4.992t-4.992-11.008q0-8 4.992-12.992t11.008-4.992q12 0 38.016-7.008t52-19.008q26.016-10.016 44.992-24.992t19.008-28.992q0-8 4.992-12.992t12.992-4.992q6.016 0 11.008 4.992t4.992 12.992l2.016 3.008 8 8.992q8 6.016 20 12l24 12q14.016 4 28.992 7.008t27.008 0.992q8 0 12.992 4.992t4.992 11.008q2.016 8-3.008 12.992t-12.992 4.992q-16 2.016-34.016-0.992t-36-8.992q-16-6.016-31.008-14.016T544 256q-14.016 20-39.008 34.016t-52.992 24q-26.016 10.016-48.992 15.008t-32.992 4.992z" p-id="2467"></path></svg>