<?xml version="1.0" standalone="no"?>
<!DOCTYPE svg PUBLIC "-//W3C//DTD SVG 1.1//EN" "http://www.w3.org/Graphics/SVG/1.1/DTD/svg11.dtd">
<svg t="1598521536969" class="icon" viewBox="0 0 1024 1024" version="1.1" xmlns="http://www.w3.org/2000/svg" p-id="1953" width="56" height="56" xmlns:xlink="http://www.w3.org/1999/xlink">
<defs>
<style type="text/css"></style></defs><path d="M698.599578 640.636329c26.786388 69.848231 12.203006 104.679139-4.689052 121.599876a66.162952 66.162952 0 0 1-36.178831 18.096586c-1.792451 0.688301-1.792451 1.290565-2.796224 1.792451L24.207811 1020.750659A17.078473 17.078473 0 0 1 1.622929 1000.761246l33.28223-136.398352a17.022549 17.022549 0 1 1 33.067136 8.101878L42.390434 977.387684l142.248912-53.787869a271.577837 271.577837 0 0 1-90.339531-179.64661l-8.03018-95.673865a17.092813 17.092813 0 0 1 15.587154-18.469415h0.501886a16.906398 16.906398 0 0 1 17.881491 15.601494l7.886785 95.8316a237.506928 237.506928 0 0 0 87.944816 165.149266 17.336586 17.336586 0 0 1 3.398487 4.101128l199.320552-75.440678a517.502115 517.502115 0 0 1-282.06009-337.210223c-4.301882-16.691304-7.901124-33.683739-10.596971-50.762212a17.078473 17.078473 0 0 1 33.6694-5.291316 482.370075 482.370075 0 0 0 305.175538 375.812448l121.169688-44.969011a337.525694 337.525694 0 0 1-41.068637-16.47621 761.877715 761.877715 0 0 1-198.116025-147.497208c-121.599876-121.513839-217.029968-284.383107-154.580975-346.846439a78.552373 78.552373 0 0 1 65.962197-18.784887 17.092813 17.092813 0 0 1-3.298109 33.884494 46.560707 46.560707 0 0 0-38.573546 8.990934c-34.085248 34.070909 21.079224 165.177945 154.580975 298.679696a728.724541 728.724541 0 0 0 188.651883 140.786272c52.468626 25.079974 93.537263 30.285252 110.027813 13.794703 13.579609-13.593948 12.489799-44.667879-3.097356-85.23463a17.021115 17.021115 0 1 1 31.776572-12.188667z m159.685875-43.018824a17.092813 17.092813 0 0 1-4.990184 32.981098 17.537341 17.537341 0 0 1-5.004523-1.003772 526.880218 526.880218 0 0 0-271.291045-26.370539l-60.857296 10.195461a17.092813 17.092813 0 1 1-5.592447-33.583362l59.953901-10.195461a561.453013 561.453013 0 0 1 288.785366 28.076952z m61.660315-264.006524a17.092813 17.092813 0 0 1-8.101879 22.68526L553.812555 526.82286a17.035454 17.035454 0 0 1-14.597721-30.787138l358.103032-170.397563a17.078473 17.078473 0 0 1 22.68526 8.087539z m-505.026656-217.962042a510.676461 510.676461 0 0 1-27.245256 308.77478l-24.778842 59.452015a17.025417 17.025417 0 0 1-31.47544-12.991685l24.778843-59.452015a476.791968 476.791968 0 0 0 25.481483-288.226122 17.092813 17.092813 0 1 1 33.282231-7.399237z m574.774509 549.264346a51.163722 51.163722 0 1 1-51.163721-51.163721 51.135042 51.135042 0 0 1 51.163721 51.163721z m-35.433171 1.261886a17.078473 17.078473 0 1 0-17.035455 15.773569 17.20753 17.20753 0 0 0 17.035455-15.773569zM580.598943 187.576413a51.163722 51.163722 0 1 1-51.163721-51.22108 51.135042 51.135042 0 0 1 51.163721 51.163721z m-35.433171 1.247546a17.078473 17.078473 0 1 0-15.773569 15.773569 17.121492 17.121492 0 0 0 15.773569-15.773569zM341.873148 34.085248a34.070909 34.070909 0 1 1 68.141818 0 34.070909 34.070909 0 1 1-68.141818 0z m511.321744 51.163722a17.078473 17.078473 0 0 1 17.078473 17.078473v17.092813a17.092813 17.092813 0 0 1-34.070908 0V102.327443a17.092813 17.092813 0 0 1 17.092812-17.078473z m0-85.24897a17.092813 17.092813 0 0 1 17.078473 17.092813v17.092813a17.092813 17.092813 0 0 1-34.070908 0V17.092813A17.092813 17.092813 0 0 1 853.295269 0z m67.066347 66.908611a17.092813 17.092813 0 0 1-15.773569 18.340359h-17.121492a17.092813 17.092813 0 0 1 0-34.085248h17.121492a17.092813 17.092813 0 0 1 15.773569 15.773568z m-85.23463 0a17.092813 17.092813 0 0 1-15.773569 18.340359h-17.121492a17.092813 17.092813 0 0 1 0-34.085248h17.078473a17.092813 17.092813 0 0 1 15.773569 15.773568z m-83.972745 137.344766v86.539535a17.092813 17.092813 0 0 1-17.078473 17.092812h-85.63614a17.092813 17.092813 0 0 1-17.078473-17.092812v-86.539535a17.092813 17.092813 0 0 1 17.078473-17.092813h85.650479a17.107152 17.107152 0 0 1 17.064134 17.092813z m-34.171286 17.092813h-51.450514v51.464853h51.464854z m-107.131212 108.321399a17.078473 17.078473 0 0 1-0.788678 24.076202L438.450409 507.134578a17.049794 17.049794 0 0 1-22.771298-25.381106l170.46926-153.390787a17.078473 17.078473 0 0 1 23.574316 1.204527z m311.671381 62.448993a17.092813 17.092813 0 0 1 17.092813 17.092813v17.078473a17.092813 17.092813 0 0 1-34.085248 0v-17.078473A17.092813 17.092813 0 0 1 921.523124 392.116582z m72.45804 20.692054a17.092813 17.092813 0 0 1-24.090542 0.38717l-12.08829-12.08829a17.078473 17.078473 0 0 1 24.076202-24.076202l12.10263 12.08829a17.107152 17.107152 0 0 1 0 23.689032z m28.607518-73.218038a17.064134 17.064134 0 0 1-15.773569 18.354698h-17.021115a17.092813 17.092813 0 0 1 0-34.070909h17.078473a17.064134 17.064134 0 0 1 15.773569 15.773569z m-29.023367-69.977288a17.078473 17.078473 0 0 1 0.415849 24.076202l-12.10263 12.08829a17.436963 17.436963 0 0 1-24.176579-25.079974l12.08829-12.08829a17.078473 17.078473 0 0 1 23.689032 0z m-72.042191-30.987893a17.092813 17.092813 0 0 1 17.092813 17.092813v17.092813a17.092813 17.092813 0 0 1-34.085248 0v-17.092813A17.107152 17.107152 0 0 1 921.523124 238.625417z m-36.078454 42.072411a17.023983 17.023983 0 0 1-24.076202 24.076201l-12.07395-12.116968a17.078473 17.078473 0 0 1 24.076202-24.076202zM204.714797 74.695018a17.078473 17.078473 0 0 1-4.301882 17.479983l-36.164492 35.275435 8.489048 49.873157a17.078473 17.078473 0 0 1-24.778842 16.978096l-44.710898-23.531297-44.796936 23.588655A17.092813 17.092813 0 0 1 33.671953 176.377179l8.489048-49.858817-36.178832-35.275436a17.092813 17.092813 0 0 1 9.507161-29.080725l50.131269-7.298861L88.004727 9.50716a17.781114 17.781114 0 0 1 30.572045 0l22.283751 45.35618 50.059571 7.298861a17.107152 17.107152 0 0 1 13.794703 11.586403zM133.762417 108.27838l17.895831-17.53734-24.692805-3.599242a17.092813 17.092813 0 0 1-12.790931-9.292066l-11.084517-22.384128-10.926781 22.384128a17.092813 17.092813 0 0 1-12.80527 9.292066l-24.778843 3.599242 17.895831 17.494322A17.035454 17.035454 0 0 1 77.264361 123.320629l-4.187165 24.678466 22.183373-11.643762a17.064134 17.064134 0 0 1 15.873946 0l22.097336 11.68678-4.201505-24.592427a17.121492 17.121492 0 0 1 4.889806-15.099608z m832.385568 746.190184a119.018747 119.018747 0 0 1 41.728259 159.585498 17.092813 17.092813 0 1 1-29.783366-16.576587 83.341802 83.341802 0 0 0-3.685279-88.547079 98.943296 98.943296 0 0 1-11.127536 43.764483 68.156157 68.156157 0 1 1-119.018747-66.378045 100.563671 100.563671 0 0 1 68.141818-46.861839 223.066943 223.066943 0 0 0-130.103264-72.544077 17.092813 17.092813 0 0 1 5.592447-33.569023 257.223889 257.223889 0 0 1 171.22926 110.644416l6.983389 10.482253z m-32.665628 80.445201c10.281499-18.383378 9.492821-53.257304-4.904145-61.258805a17.307907 17.307907 0 0 0-8.489048-0.989433 63.825595 63.825595 0 0 0-46.173538 30.113177l-0.200755 0.301132a34.128267 34.128267 0 0 0 59.753147 32.981098v-1.10415z m0 0" p-id="1954"></path>
</svg>